<?xml version="1.0" standalone="no"?>
<!DOCTYPE svg PUBLIC "-//W3C//DTD SVG 20010904//EN"
 "http://www.w3.org/TR/2001/REC-SVG-20010904/DTD/svg10.dtd">
<svg version="1.0" xmlns="http://www.w3.org/2000/svg"
 width="1200.000000pt" height="1200.000000pt" viewBox="0 0 1200.000000 1200.000000"
 preserveAspectRatio="xMidYMid meet">
<metadata>
Created by potrace 1.14, written by Peter Selinger 2001-2017
</metadata>
<g transform="translate(0.000000,1200.000000) scale(0.100000,-0.100000)"
fill="#000000" stroke="none">
<path d="M5667 11989 c-596 -33 -1209 -161 -1769 -370 -806 -302 -1528 -768
-2138 -1379 -472 -473 -834 -974 -1126 -1560 -522 -1047 -726 -2203 -594
-3361 137 -1202 620 -2306 1415 -3235 122 -144 412 -438 550 -561 710 -627
1537 -1076 2422 -1313 1376 -369 2802 -249 4093 344 823 379 1586 975 2155
1686 795 994 1242 2163 1315 3439 45 802 -82 1649 -362 2399 -483 1299 -1377
2369 -2583 3091 -142 85 -541 286 -710 358 -829 351 -1758 512 -2668 462z
m493 -2334 c41 -8 107 -24 145 -35 39 -11 165 -45 280 -75 116 -30 278 -73
360 -94 83 -22 321 -84 530 -139 209 -55 450 -119 535 -141 85 -22 256 -67
380 -99 124 -33 367 -96 540 -142 521 -136 604 -162 616 -194 12 -33 -19 -54
-178 -124 -90 -39 -640 -270 -1223 -513 -583 -243 -1226 -511 -1430 -595 -203
-85 -410 -168 -460 -183 -158 -51 -337 -59 -460 -23 -27 8 -570 234 -2055 854
-250 105 -606 253 -790 330 -387 162 -450 190 -473 216 -44 49 20 77 398 177
160 42 373 98 475 125 102 27 385 101 630 165 245 64 762 199 1148 301 387
102 729 189 760 193 89 13 190 12 272 -4z m-3878 -1359 c35 -13 117 -49 183
-81 66 -31 210 -99 320 -150 297 -138 822 -384 1240 -582 204 -97 541 -256
750 -353 645 -301 708 -335 773 -418 37 -47 70 -112 88 -172 34 -116 36 -163
69 -2600 9 -624 20 -1285 25 -1468 11 -435 1 -512 -71 -512 -32 0 -114 38
-169 79 -19 14 -105 80 -190 147 -85 66 -324 251 -530 410 -807 625 -1769
1371 -1852 1436 -110 87 -166 150 -206 230 -43 87 -58 150 -92 388 -29 202
-92 629 -189 1295 -27 187 -72 498 -100 690 -28 193 -85 586 -127 875 -59 407
-77 552 -78 646 -1 107 1 124 18 143 25 27 61 27 138 -3z m7574 16 c40 -26 45
-171 14 -382 -11 -74 -43 -288 -70 -475 -27 -187 -74 -511 -105 -720 -31 -209
-60 -409 -65 -445 -5 -36 -32 -220 -59 -410 -236 -1624 -222 -1548 -285 -1654
-44 -75 -118 -138 -566 -485 -245 -190 -555 -430 -690 -535 -135 -104 -292
-226 -350 -271 -58 -45 -348 -269 -645 -499 -297 -230 -560 -430 -584 -444
-30 -17 -60 -26 -90 -26 -77 -1 -76 -8 -74 474 4 1093 49 3877 63 3980 30 208
116 335 290 424 47 24 306 148 575 276 270 128 602 286 740 352 137 67 331
158 430 203 99 45 338 157 530 248 632 297 779 365 830 380 56 17 94 20 111 9z"/>
</g>
</svg>
